<?xml version="1.0" encoding="iso-8859-1"?>
<!-- Uploaded to: SVG Repo, www.svgrepo.com, Generator: SVG Repo Mixer Tools -->
<svg fill="#000000" height="800px" width="800px" version="1.1" id="Layer_1" xmlns="http://www.w3.org/2000/svg" xmlns:xlink="http://www.w3.org/1999/xlink" 
	 viewBox="0 0 512.004 512.004" xml:space="preserve">
<g>
	<g>
		<g>
			<path d="M293.433,426.671l-145.387,0.789c-0.62,0-1.337-0.041-2.061-0.122l-6.456-0.71
				c-54.386-3.114-96.861-53.832-96.861-117.291c0-65.241,45.841-117.333,100.693-117.333h244.053c0.06,0,0.118-0.008,0.178-0.009
				c48.673-0.11,86.856-43.564,86.856-95.997V80.168c0-39.593-25.84-74.862-62.245-79.608c-9.961-1.309-20.154-0.323-29.939,2.949
				c-38.441,12.834-59.595,56.896-48.853,98.408c2.951,11.406,14.591,18.261,25.997,15.309
				c11.406-2.951,18.261-14.591,15.309-25.997c-5.344-20.654,4.821-41.828,21.068-47.253c3.659-1.224,7.324-1.578,10.881-1.111
				c13.415,1.749,25.115,17.718,25.115,37.302v15.829c0,30.064-20.476,53.333-44.373,53.333c-0.042,0-0.083,0.006-0.126,0.006
				H143.362c-79.717,0-143.36,72.322-143.36,160c0,85.044,58.942,155.427,135.987,159.795l5.275,0.61
				c2.254,0.254,4.567,0.384,6.898,0.384l145.502-0.79c11.782-0.064,21.281-9.667,21.217-21.449S305.215,426.607,293.433,426.671z"
				/>
			<path d="M512.002,426.67c0-57.573-42.286-105.621-95.509-105.621h-262.56l-8.21-0.914l-2.361-0.131
				c-3.116,0-6.827-4.217-6.827-10.667c0-6.449,3.71-10.667,6.827-10.667h244.053c11.782,0,21.333-9.551,21.333-21.333
				c0-11.782-9.551-21.333-21.333-21.333H143.362c-27.982,0-49.493,24.449-49.493,53.333c0,28.416,20.818,52.539,48.136,53.314
				l8.382,0.933l2.361,0.131h263.744c28.36,0,52.843,27.819,52.843,62.955c0,0.905,0.075,1.791,0.184,2.667
				c-0.109,0.875-0.184,1.762-0.184,2.667c0,21.19-14.205,37.333-30.293,37.333s-30.293-16.144-30.293-37.333
				c0-11.782-9.551-21.333-21.333-21.333c-11.782,0-21.333,9.551-21.333,21.333c0,43.626,32.007,80,72.96,80s72.96-36.374,72.96-80
				c0-0.905-0.075-1.791-0.184-2.667C511.927,428.461,512.002,427.575,512.002,426.67z"/>
		</g>
	</g>
</g>
</svg>